<mxfile host="app.diagrams.net" modified="2023-11-22T16:54:24.597Z" agent="Mozilla/5.0 (Windows NT 10.0; Win64; x64) AppleWebKit/537.36 (KHTML, like Gecko) Chrome/119.0.0.0 Safari/537.36 Edg/119.0.0.0" etag="-4BZiYwlHq-GCvE3Xg9n" version="22.1.3" type="github">
  <diagram name="Página-1" id="8Q8NYWvQopLGxL6JcKgY">
    <mxGraphModel dx="2213" dy="1916" grid="1" gridSize="10" guides="1" tooltips="1" connect="1" arrows="1" fold="1" page="1" pageScale="1" pageWidth="827" pageHeight="1169" math="0" shadow="0">
      <root>
        <mxCell id="0" />
        <mxCell id="1" parent="0" />
        <mxCell id="k__9oxaFygpGIk1sYvMP-1" value="" style="whiteSpace=wrap;html=1;aspect=fixed;" parent="1" vertex="1">
          <mxGeometry x="-10" y="-1140" width="790" height="790" as="geometry" />
        </mxCell>
        <mxCell id="k__9oxaFygpGIk1sYvMP-2" value="" style="rounded=1;whiteSpace=wrap;html=1;" parent="1" vertex="1">
          <mxGeometry x="10" y="-1125" width="750" height="60" as="geometry" />
        </mxCell>
        <mxCell id="k__9oxaFygpGIk1sYvMP-6" value="Icone Pesquisa" style="rounded=1;whiteSpace=wrap;html=1;" parent="1" vertex="1">
          <mxGeometry x="660" y="-1110" width="90" height="30" as="geometry" />
        </mxCell>
        <mxCell id="k__9oxaFygpGIk1sYvMP-12" value="Home" style="rounded=1;whiteSpace=wrap;html=1;" parent="1" vertex="1">
          <mxGeometry x="100" y="-1110" width="70" height="30" as="geometry" />
        </mxCell>
        <mxCell id="k__9oxaFygpGIk1sYvMP-13" value="LOGO" style="ellipse;whiteSpace=wrap;html=1;" parent="1" vertex="1">
          <mxGeometry x="20" y="-1120" width="70" height="50" as="geometry" />
        </mxCell>
        <mxCell id="k__9oxaFygpGIk1sYvMP-14" value="Jogo" style="rounded=1;whiteSpace=wrap;html=1;" parent="1" vertex="1">
          <mxGeometry x="500" y="-1110" width="70" height="30" as="geometry" />
        </mxCell>
        <mxCell id="k__9oxaFygpGIk1sYvMP-16" value="Contato" style="rounded=1;whiteSpace=wrap;html=1;" parent="1" vertex="1">
          <mxGeometry x="580" y="-1110" width="70" height="30" as="geometry" />
        </mxCell>
        <mxCell id="k__9oxaFygpGIk1sYvMP-17" value="" style="whiteSpace=wrap;html=1;aspect=fixed;" parent="1" vertex="1">
          <mxGeometry x="-10" y="-320" width="790" height="790" as="geometry" />
        </mxCell>
        <mxCell id="k__9oxaFygpGIk1sYvMP-25" value="" style="rounded=0;whiteSpace=wrap;html=1;" parent="1" vertex="1">
          <mxGeometry x="420" y="-180" width="330" height="470" as="geometry" />
        </mxCell>
        <mxCell id="k__9oxaFygpGIk1sYvMP-26" value="Paragrafo .......................................................&lt;br&gt;......................................................&lt;br&gt;......................................................&lt;br&gt;" style="text;html=1;strokeColor=none;fillColor=none;align=center;verticalAlign=middle;whiteSpace=wrap;rounded=0;" parent="1" vertex="1">
          <mxGeometry x="532.5" y="-150" width="105" height="70" as="geometry" />
        </mxCell>
        <mxCell id="k__9oxaFygpGIk1sYvMP-29" value="List" style="swimlane;fontStyle=0;childLayout=stackLayout;horizontal=1;startSize=0;horizontalStack=0;resizeParent=1;resizeParentMax=0;resizeLast=0;collapsible=1;marginBottom=0;whiteSpace=wrap;html=1;" parent="1" vertex="1">
          <mxGeometry x="480" y="130" width="190" height="80" as="geometry" />
        </mxCell>
        <mxCell id="k__9oxaFygpGIk1sYvMP-30" value="Item 1" style="text;strokeColor=none;fillColor=none;align=left;verticalAlign=middle;spacingLeft=4;spacingRight=4;overflow=hidden;points=[[0,0.5],[1,0.5]];portConstraint=eastwest;rotatable=0;whiteSpace=wrap;html=1;" parent="k__9oxaFygpGIk1sYvMP-29" vertex="1">
          <mxGeometry width="190" height="30" as="geometry" />
        </mxCell>
        <mxCell id="k__9oxaFygpGIk1sYvMP-31" value="Item 2" style="text;strokeColor=none;fillColor=none;align=left;verticalAlign=middle;spacingLeft=4;spacingRight=4;overflow=hidden;points=[[0,0.5],[1,0.5]];portConstraint=eastwest;rotatable=0;whiteSpace=wrap;html=1;" parent="k__9oxaFygpGIk1sYvMP-29" vertex="1">
          <mxGeometry y="30" width="190" height="20" as="geometry" />
        </mxCell>
        <mxCell id="k__9oxaFygpGIk1sYvMP-32" value="Item 3" style="text;strokeColor=none;fillColor=none;align=left;verticalAlign=middle;spacingLeft=4;spacingRight=4;overflow=hidden;points=[[0,0.5],[1,0.5]];portConstraint=eastwest;rotatable=0;whiteSpace=wrap;html=1;" parent="k__9oxaFygpGIk1sYvMP-29" vertex="1">
          <mxGeometry y="50" width="190" height="30" as="geometry" />
        </mxCell>
        <mxCell id="k__9oxaFygpGIk1sYvMP-33" value="Botão (Nossa Missão)" style="rounded=1;whiteSpace=wrap;html=1;" parent="1" vertex="1">
          <mxGeometry x="450" y="-40" width="130" height="40" as="geometry" />
        </mxCell>
        <mxCell id="k__9oxaFygpGIk1sYvMP-34" value="Botão (Nossa Visão)" style="rounded=1;whiteSpace=wrap;html=1;" parent="1" vertex="1">
          <mxGeometry x="585" y="-40" width="115" height="40" as="geometry" />
        </mxCell>
        <mxCell id="k__9oxaFygpGIk1sYvMP-35" value="Botão (Próximo Passo)" style="rounded=1;whiteSpace=wrap;html=1;" parent="1" vertex="1">
          <mxGeometry x="490" y="10" width="90" height="40" as="geometry" />
        </mxCell>
        <mxCell id="k__9oxaFygpGIk1sYvMP-38" value="&lt;font style=&quot;font-size: 30px;&quot;&gt;&lt;br&gt;&lt;br&gt;IMAGEM DE FUNDO&lt;/font&gt;" style="whiteSpace=wrap;html=1;aspect=fixed;verticalAlign=top;" parent="1" vertex="1">
          <mxGeometry x="50" y="-1050" width="670" height="670" as="geometry" />
        </mxCell>
        <mxCell id="k__9oxaFygpGIk1sYvMP-41" value="&lt;font style=&quot;font-size: 30px;&quot;&gt;INFORMAÇÕES EM GERAL NA TELA INICIAL&lt;/font&gt;" style="rounded=0;whiteSpace=wrap;html=1;" parent="1" vertex="1">
          <mxGeometry x="330" y="-860" width="370" height="320" as="geometry" />
        </mxCell>
        <mxCell id="k__9oxaFygpGIk1sYvMP-42" value="Contribua, faça sua&lt;br&gt;Doação" style="rounded=1;whiteSpace=wrap;html=1;" parent="1" vertex="1">
          <mxGeometry x="130" y="-750" width="120" height="60" as="geometry" />
        </mxCell>
        <mxCell id="k__9oxaFygpGIk1sYvMP-46" value="Mais algumas informação&lt;br&gt;........................................&lt;br&gt;........................................" style="text;html=1;strokeColor=none;fillColor=none;align=center;verticalAlign=middle;whiteSpace=wrap;rounded=0;" parent="1" vertex="1">
          <mxGeometry x="480" y="75" width="210" height="45" as="geometry" />
        </mxCell>
        <mxCell id="k__9oxaFygpGIk1sYvMP-47" value="Imagem" style="rounded=0;whiteSpace=wrap;html=1;" parent="1" vertex="1">
          <mxGeometry x="20" y="-155" width="185" height="155" as="geometry" />
        </mxCell>
        <mxCell id="k__9oxaFygpGIk1sYvMP-48" value="Imagem" style="rounded=0;whiteSpace=wrap;html=1;" parent="1" vertex="1">
          <mxGeometry x="230" y="-155" width="150" height="95" as="geometry" />
        </mxCell>
        <mxCell id="k__9oxaFygpGIk1sYvMP-49" value="Imagem" style="rounded=0;whiteSpace=wrap;html=1;" parent="1" vertex="1">
          <mxGeometry x="45" y="20" width="160" height="120" as="geometry" />
        </mxCell>
        <mxCell id="k__9oxaFygpGIk1sYvMP-50" value="Imagem" style="rounded=0;whiteSpace=wrap;html=1;" parent="1" vertex="1">
          <mxGeometry x="240" y="-40" width="140" height="130" as="geometry" />
        </mxCell>
        <mxCell id="k__9oxaFygpGIk1sYvMP-55" value="Botão (Saiba mais sobre nós)" style="rounded=1;whiteSpace=wrap;html=1;" parent="1" vertex="1">
          <mxGeometry x="493.75" y="230" width="162.5" height="37.5" as="geometry" />
        </mxCell>
        <mxCell id="k__9oxaFygpGIk1sYvMP-56" value="" style="whiteSpace=wrap;html=1;aspect=fixed;" parent="1" vertex="1">
          <mxGeometry x="840" y="-1140" width="790" height="790" as="geometry" />
        </mxCell>
        <mxCell id="k__9oxaFygpGIk1sYvMP-57" value="&lt;br&gt;&lt;br&gt;&lt;br&gt;&lt;br&gt;&lt;br&gt;&lt;br&gt;&lt;br&gt;Saiba mais" style="rounded=0;whiteSpace=wrap;html=1;" parent="1" vertex="1">
          <mxGeometry x="870" y="-870" width="150" height="170" as="geometry" />
        </mxCell>
        <mxCell id="k__9oxaFygpGIk1sYvMP-58" value="&lt;br&gt;&lt;br&gt;&lt;br&gt;&lt;br&gt;&lt;br&gt;&lt;br&gt;&lt;br&gt;Saiba mais" style="rounded=0;whiteSpace=wrap;html=1;" parent="1" vertex="1">
          <mxGeometry x="1065" y="-870" width="150" height="170" as="geometry" />
        </mxCell>
        <mxCell id="k__9oxaFygpGIk1sYvMP-59" value="&lt;br&gt;&lt;br&gt;&lt;br&gt;&lt;br&gt;&lt;br&gt;&lt;br&gt;&lt;br&gt;Saiba mais" style="rounded=0;whiteSpace=wrap;html=1;" parent="1" vertex="1">
          <mxGeometry x="1260" y="-870" width="150" height="170" as="geometry" />
        </mxCell>
        <mxCell id="k__9oxaFygpGIk1sYvMP-60" value="&lt;br&gt;&lt;br&gt;&lt;br&gt;&lt;br&gt;&lt;br&gt;&lt;br&gt;&lt;br&gt;Saiba mais" style="rounded=0;whiteSpace=wrap;html=1;" parent="1" vertex="1">
          <mxGeometry x="1460" y="-870" width="150" height="170" as="geometry" />
        </mxCell>
        <mxCell id="k__9oxaFygpGIk1sYvMP-87" style="edgeStyle=orthogonalEdgeStyle;rounded=0;orthogonalLoop=1;jettySize=auto;html=1;exitX=0.5;exitY=1;exitDx=0;exitDy=0;" parent="1" edge="1">
          <mxGeometry relative="1" as="geometry">
            <mxPoint x="1185" y="-930" as="sourcePoint" />
            <mxPoint x="1185" y="-930" as="targetPoint" />
          </mxGeometry>
        </mxCell>
        <mxCell id="k__9oxaFygpGIk1sYvMP-92" value="" style="whiteSpace=wrap;html=1;aspect=fixed;" parent="1" vertex="1">
          <mxGeometry x="843" y="-322.5" width="795" height="795" as="geometry" />
        </mxCell>
        <mxCell id="k__9oxaFygpGIk1sYvMP-93" value="Foto e informações foto" style="rounded=0;whiteSpace=wrap;html=1;" parent="1" vertex="1">
          <mxGeometry x="960" y="-150" width="190" height="140" as="geometry" />
        </mxCell>
        <mxCell id="k__9oxaFygpGIk1sYvMP-94" value="Foto e informações foto" style="rounded=0;whiteSpace=wrap;html=1;" parent="1" vertex="1">
          <mxGeometry x="1310" y="110" width="190" height="140" as="geometry" />
        </mxCell>
        <mxCell id="k__9oxaFygpGIk1sYvMP-95" value="Foto e informações foto" style="rounded=0;whiteSpace=wrap;html=1;" parent="1" vertex="1">
          <mxGeometry x="960" y="110" width="190" height="140" as="geometry" />
        </mxCell>
        <mxCell id="k__9oxaFygpGIk1sYvMP-96" value="Foto e informações foto" style="rounded=0;whiteSpace=wrap;html=1;" parent="1" vertex="1">
          <mxGeometry x="1300" y="-147.5" width="190" height="140" as="geometry" />
        </mxCell>
        <mxCell id="k__9oxaFygpGIk1sYvMP-112" value="Botão para doação" style="rounded=0;whiteSpace=wrap;html=1;" parent="1" vertex="1">
          <mxGeometry x="1110" y="-50" width="100" height="70" as="geometry" />
        </mxCell>
        <mxCell id="k__9oxaFygpGIk1sYvMP-114" value="Botão para doação" style="rounded=0;whiteSpace=wrap;html=1;" parent="1" vertex="1">
          <mxGeometry x="1450" y="200" width="100" height="70" as="geometry" />
        </mxCell>
        <mxCell id="k__9oxaFygpGIk1sYvMP-115" value="Botão para doação" style="rounded=0;whiteSpace=wrap;html=1;" parent="1" vertex="1">
          <mxGeometry x="1115" y="200" width="100" height="70" as="geometry" />
        </mxCell>
        <mxCell id="k__9oxaFygpGIk1sYvMP-116" value="Botão para doação" style="rounded=0;whiteSpace=wrap;html=1;" parent="1" vertex="1">
          <mxGeometry x="1450" y="-50" width="100" height="70" as="geometry" />
        </mxCell>
        <mxCell id="k__9oxaFygpGIk1sYvMP-117" value="" style="whiteSpace=wrap;html=1;aspect=fixed;" parent="1" vertex="1">
          <mxGeometry x="840" y="500" width="785" height="785" as="geometry" />
        </mxCell>
        <mxCell id="k__9oxaFygpGIk1sYvMP-118" value="TEXTO" style="whiteSpace=wrap;html=1;aspect=fixed;" parent="1" vertex="1">
          <mxGeometry x="865" y="670" width="330" height="330" as="geometry" />
        </mxCell>
        <mxCell id="k__9oxaFygpGIk1sYvMP-119" value="IMAGEM" style="whiteSpace=wrap;html=1;aspect=fixed;" parent="1" vertex="1">
          <mxGeometry x="1270" y="670" width="330" height="330" as="geometry" />
        </mxCell>
        <mxCell id="k__9oxaFygpGIk1sYvMP-120" value="" style="rounded=1;whiteSpace=wrap;html=1;" parent="1" vertex="1">
          <mxGeometry x="850" y="510" width="770" height="60" as="geometry" />
        </mxCell>
        <mxCell id="k__9oxaFygpGIk1sYvMP-121" value="Icone Pesquisa" style="rounded=1;whiteSpace=wrap;html=1;" parent="1" vertex="1">
          <mxGeometry x="1520" y="525" width="90" height="30" as="geometry" />
        </mxCell>
        <mxCell id="k__9oxaFygpGIk1sYvMP-122" value="LOGO" style="ellipse;whiteSpace=wrap;html=1;" parent="1" vertex="1">
          <mxGeometry x="860" y="515" width="70" height="50" as="geometry" />
        </mxCell>
        <mxCell id="k__9oxaFygpGIk1sYvMP-123" value="Home" style="rounded=1;whiteSpace=wrap;html=1;" parent="1" vertex="1">
          <mxGeometry x="940" y="525" width="70" height="30" as="geometry" />
        </mxCell>
        <mxCell id="k__9oxaFygpGIk1sYvMP-124" value="Sobre" style="rounded=1;whiteSpace=wrap;html=1;" parent="1" vertex="1">
          <mxGeometry x="1020" y="525" width="70" height="30" as="geometry" />
        </mxCell>
        <mxCell id="k__9oxaFygpGIk1sYvMP-128" value="Serviçõs" style="rounded=1;whiteSpace=wrap;html=1;" parent="1" vertex="1">
          <mxGeometry x="1105" y="525" width="70" height="30" as="geometry" />
        </mxCell>
        <mxCell id="k__9oxaFygpGIk1sYvMP-129" value="Jogo" style="rounded=1;whiteSpace=wrap;html=1;" parent="1" vertex="1">
          <mxGeometry x="1360" y="525" width="70" height="30" as="geometry" />
        </mxCell>
        <mxCell id="k__9oxaFygpGIk1sYvMP-130" value="Comunidade" style="rounded=1;whiteSpace=wrap;html=1;" parent="1" vertex="1">
          <mxGeometry x="1275" y="525" width="70" height="30" as="geometry" />
        </mxCell>
        <mxCell id="k__9oxaFygpGIk1sYvMP-131" value="Doação" style="rounded=1;whiteSpace=wrap;html=1;" parent="1" vertex="1">
          <mxGeometry x="1190" y="525" width="70" height="30" as="geometry" />
        </mxCell>
        <mxCell id="k__9oxaFygpGIk1sYvMP-133" value="Sobre" style="rounded=1;whiteSpace=wrap;html=1;" parent="1" vertex="1">
          <mxGeometry x="180" y="-1110" width="70" height="30" as="geometry" />
        </mxCell>
        <mxCell id="k__9oxaFygpGIk1sYvMP-134" value="Serviços" style="rounded=1;whiteSpace=wrap;html=1;" parent="1" vertex="1">
          <mxGeometry x="260" y="-1110" width="70" height="30" as="geometry" />
        </mxCell>
        <mxCell id="k__9oxaFygpGIk1sYvMP-135" value="Doação" style="rounded=1;whiteSpace=wrap;html=1;" parent="1" vertex="1">
          <mxGeometry x="340" y="-1110" width="70" height="30" as="geometry" />
        </mxCell>
        <mxCell id="k__9oxaFygpGIk1sYvMP-136" value="Comunidade" style="rounded=1;whiteSpace=wrap;html=1;" parent="1" vertex="1">
          <mxGeometry x="420" y="-1110" width="70" height="30" as="geometry" />
        </mxCell>
        <mxCell id="k__9oxaFygpGIk1sYvMP-137" value="" style="rounded=1;whiteSpace=wrap;html=1;" parent="1" vertex="1">
          <mxGeometry x="10" y="-310" width="750" height="60" as="geometry" />
        </mxCell>
        <mxCell id="k__9oxaFygpGIk1sYvMP-138" value="LOGO" style="ellipse;whiteSpace=wrap;html=1;" parent="1" vertex="1">
          <mxGeometry x="20" y="-305" width="70" height="50" as="geometry" />
        </mxCell>
        <mxCell id="k__9oxaFygpGIk1sYvMP-139" value="Icone Pesquisa" style="rounded=1;whiteSpace=wrap;html=1;" parent="1" vertex="1">
          <mxGeometry x="660" y="-295" width="90" height="30" as="geometry" />
        </mxCell>
        <mxCell id="k__9oxaFygpGIk1sYvMP-140" value="Home" style="rounded=1;whiteSpace=wrap;html=1;" parent="1" vertex="1">
          <mxGeometry x="100" y="-295" width="70" height="30" as="geometry" />
        </mxCell>
        <mxCell id="k__9oxaFygpGIk1sYvMP-141" value="Serviços" style="rounded=1;whiteSpace=wrap;html=1;" parent="1" vertex="1">
          <mxGeometry x="260" y="-295" width="70" height="30" as="geometry" />
        </mxCell>
        <mxCell id="k__9oxaFygpGIk1sYvMP-142" value="Doação" style="rounded=1;whiteSpace=wrap;html=1;" parent="1" vertex="1">
          <mxGeometry x="340" y="-295" width="70" height="30" as="geometry" />
        </mxCell>
        <mxCell id="k__9oxaFygpGIk1sYvMP-143" value="Comunidade" style="rounded=1;whiteSpace=wrap;html=1;" parent="1" vertex="1">
          <mxGeometry x="420" y="-295" width="70" height="30" as="geometry" />
        </mxCell>
        <mxCell id="k__9oxaFygpGIk1sYvMP-144" value="Jogo" style="rounded=1;whiteSpace=wrap;html=1;" parent="1" vertex="1">
          <mxGeometry x="500" y="-295" width="70" height="30" as="geometry" />
        </mxCell>
        <mxCell id="k__9oxaFygpGIk1sYvMP-145" value="Contato" style="rounded=1;whiteSpace=wrap;html=1;" parent="1" vertex="1">
          <mxGeometry x="580" y="-295" width="70" height="30" as="geometry" />
        </mxCell>
        <mxCell id="k__9oxaFygpGIk1sYvMP-146" value="Sobre" style="rounded=1;whiteSpace=wrap;html=1;" parent="1" vertex="1">
          <mxGeometry x="180" y="-295" width="70" height="30" as="geometry" />
        </mxCell>
        <mxCell id="k__9oxaFygpGIk1sYvMP-148" value="" style="rounded=1;whiteSpace=wrap;html=1;" parent="1" vertex="1">
          <mxGeometry x="865" y="-305" width="750" height="60" as="geometry" />
        </mxCell>
        <mxCell id="k__9oxaFygpGIk1sYvMP-149" value="Icone Pesquisa" style="rounded=1;whiteSpace=wrap;html=1;" parent="1" vertex="1">
          <mxGeometry x="1520" y="-290" width="90" height="30" as="geometry" />
        </mxCell>
        <mxCell id="k__9oxaFygpGIk1sYvMP-150" value="LOGO" style="ellipse;whiteSpace=wrap;html=1;" parent="1" vertex="1">
          <mxGeometry x="880" y="-300" width="70" height="50" as="geometry" />
        </mxCell>
        <mxCell id="k__9oxaFygpGIk1sYvMP-151" value="Home" style="rounded=1;whiteSpace=wrap;html=1;" parent="1" vertex="1">
          <mxGeometry x="960" y="-290" width="70" height="30" as="geometry" />
        </mxCell>
        <mxCell id="k__9oxaFygpGIk1sYvMP-152" value="Sobre" style="rounded=1;whiteSpace=wrap;html=1;" parent="1" vertex="1">
          <mxGeometry x="1040" y="-290" width="70" height="30" as="geometry" />
        </mxCell>
        <mxCell id="k__9oxaFygpGIk1sYvMP-153" value="Serviços" style="rounded=1;whiteSpace=wrap;html=1;" parent="1" vertex="1">
          <mxGeometry x="1120" y="-290" width="70" height="30" as="geometry" />
        </mxCell>
        <mxCell id="k__9oxaFygpGIk1sYvMP-154" value="Doação" style="rounded=1;whiteSpace=wrap;html=1;" parent="1" vertex="1">
          <mxGeometry x="1200" y="-290" width="70" height="30" as="geometry" />
        </mxCell>
        <mxCell id="k__9oxaFygpGIk1sYvMP-155" value="Comunidade" style="rounded=1;whiteSpace=wrap;html=1;" parent="1" vertex="1">
          <mxGeometry x="1280" y="-290" width="70" height="30" as="geometry" />
        </mxCell>
        <mxCell id="k__9oxaFygpGIk1sYvMP-156" value="Jogo" style="rounded=1;whiteSpace=wrap;html=1;" parent="1" vertex="1">
          <mxGeometry x="1360" y="-290" width="70" height="30" as="geometry" />
        </mxCell>
        <mxCell id="k__9oxaFygpGIk1sYvMP-157" value="Contato" style="rounded=1;whiteSpace=wrap;html=1;" parent="1" vertex="1">
          <mxGeometry x="1440" y="-290" width="70" height="30" as="geometry" />
        </mxCell>
        <mxCell id="k__9oxaFygpGIk1sYvMP-158" value="" style="rounded=1;whiteSpace=wrap;html=1;" parent="1" vertex="1">
          <mxGeometry x="860" y="-1120" width="750" height="60" as="geometry" />
        </mxCell>
        <mxCell id="k__9oxaFygpGIk1sYvMP-159" value="Icone Pesquisa" style="rounded=1;whiteSpace=wrap;html=1;" parent="1" vertex="1">
          <mxGeometry x="1510" y="-1105" width="90" height="30" as="geometry" />
        </mxCell>
        <mxCell id="k__9oxaFygpGIk1sYvMP-160" value="LOGO" style="ellipse;whiteSpace=wrap;html=1;" parent="1" vertex="1">
          <mxGeometry x="870" y="-1115" width="70" height="50" as="geometry" />
        </mxCell>
        <mxCell id="k__9oxaFygpGIk1sYvMP-161" value="Home" style="rounded=1;whiteSpace=wrap;html=1;" parent="1" vertex="1">
          <mxGeometry x="950" y="-1105" width="70" height="30" as="geometry" />
        </mxCell>
        <mxCell id="k__9oxaFygpGIk1sYvMP-162" value="Sobre" style="rounded=1;whiteSpace=wrap;html=1;" parent="1" vertex="1">
          <mxGeometry x="1030" y="-1105" width="70" height="30" as="geometry" />
        </mxCell>
        <mxCell id="k__9oxaFygpGIk1sYvMP-163" value="Serviços" style="rounded=1;whiteSpace=wrap;html=1;" parent="1" vertex="1">
          <mxGeometry x="1110" y="-1105" width="70" height="30" as="geometry" />
        </mxCell>
        <mxCell id="k__9oxaFygpGIk1sYvMP-164" value="Doação" style="rounded=1;whiteSpace=wrap;html=1;" parent="1" vertex="1">
          <mxGeometry x="1190" y="-1105" width="70" height="30" as="geometry" />
        </mxCell>
        <mxCell id="k__9oxaFygpGIk1sYvMP-165" value="Comunidade" style="rounded=1;whiteSpace=wrap;html=1;" parent="1" vertex="1">
          <mxGeometry x="1270" y="-1105" width="70" height="30" as="geometry" />
        </mxCell>
        <mxCell id="k__9oxaFygpGIk1sYvMP-166" value="Jogo" style="rounded=1;whiteSpace=wrap;html=1;" parent="1" vertex="1">
          <mxGeometry x="1350" y="-1105" width="70" height="30" as="geometry" />
        </mxCell>
        <mxCell id="k__9oxaFygpGIk1sYvMP-167" value="Contato" style="rounded=1;whiteSpace=wrap;html=1;" parent="1" vertex="1">
          <mxGeometry x="1430" y="-1105" width="70" height="30" as="geometry" />
        </mxCell>
        <mxCell id="k__9oxaFygpGIk1sYvMP-168" value="" style="whiteSpace=wrap;html=1;aspect=fixed;" parent="1" vertex="1">
          <mxGeometry x="-10" y="500" width="790" height="790" as="geometry" />
        </mxCell>
        <mxCell id="k__9oxaFygpGIk1sYvMP-169" value="" style="rounded=1;whiteSpace=wrap;html=1;" parent="1" vertex="1">
          <mxGeometry x="10" y="510" width="750" height="60" as="geometry" />
        </mxCell>
        <mxCell id="k__9oxaFygpGIk1sYvMP-170" value="LOGO" style="ellipse;whiteSpace=wrap;html=1;" parent="1" vertex="1">
          <mxGeometry x="20" y="515" width="70" height="50" as="geometry" />
        </mxCell>
        <mxCell id="k__9oxaFygpGIk1sYvMP-171" value="Home" style="rounded=1;whiteSpace=wrap;html=1;" parent="1" vertex="1">
          <mxGeometry x="100" y="525" width="70" height="30" as="geometry" />
        </mxCell>
        <mxCell id="k__9oxaFygpGIk1sYvMP-172" value="Sobre" style="rounded=1;whiteSpace=wrap;html=1;" parent="1" vertex="1">
          <mxGeometry x="180" y="525" width="70" height="30" as="geometry" />
        </mxCell>
        <mxCell id="k__9oxaFygpGIk1sYvMP-173" value="Serviços" style="rounded=1;whiteSpace=wrap;html=1;" parent="1" vertex="1">
          <mxGeometry x="260" y="525" width="70" height="30" as="geometry" />
        </mxCell>
        <mxCell id="k__9oxaFygpGIk1sYvMP-174" value="Doação" style="rounded=1;whiteSpace=wrap;html=1;" parent="1" vertex="1">
          <mxGeometry x="340" y="525" width="70" height="30" as="geometry" />
        </mxCell>
        <mxCell id="k__9oxaFygpGIk1sYvMP-175" value="Comunidade" style="rounded=1;whiteSpace=wrap;html=1;" parent="1" vertex="1">
          <mxGeometry x="420" y="525" width="70" height="30" as="geometry" />
        </mxCell>
        <mxCell id="k__9oxaFygpGIk1sYvMP-176" value="Jogo" style="rounded=1;whiteSpace=wrap;html=1;" parent="1" vertex="1">
          <mxGeometry x="500" y="525" width="70" height="30" as="geometry" />
        </mxCell>
        <mxCell id="k__9oxaFygpGIk1sYvMP-177" value="Contato" style="rounded=1;whiteSpace=wrap;html=1;" parent="1" vertex="1">
          <mxGeometry x="580" y="525" width="70" height="30" as="geometry" />
        </mxCell>
        <mxCell id="k__9oxaFygpGIk1sYvMP-178" value="Icone Pesquisa" style="rounded=1;whiteSpace=wrap;html=1;" parent="1" vertex="1">
          <mxGeometry x="660" y="525" width="90" height="30" as="geometry" />
        </mxCell>
        <mxCell id="0_VyNLKy_HNecOymSIEc-1" value="Jogo" style="rounded=1;whiteSpace=wrap;html=1;" vertex="1" parent="1">
          <mxGeometry x="1440" y="525" width="70" height="30" as="geometry" />
        </mxCell>
        <mxCell id="0_VyNLKy_HNecOymSIEc-3" value="&lt;h1&gt;Parágrafo&lt;/h1&gt;&lt;p&gt;Texto .........................................................................&lt;/p&gt;&lt;p&gt;......................................................................................&lt;/p&gt;" style="text;html=1;strokeColor=none;fillColor=none;spacing=5;spacingTop=-20;whiteSpace=wrap;overflow=hidden;rounded=0;" vertex="1" parent="1">
          <mxGeometry x="865" y="-1040" width="325" height="120" as="geometry" />
        </mxCell>
        <mxCell id="0_VyNLKy_HNecOymSIEc-4" value="Tela Inicial/Home" style="text;strokeColor=#d79b00;align=center;fillColor=#ffe6cc;html=1;verticalAlign=middle;whiteSpace=wrap;rounded=0;" vertex="1" parent="1">
          <mxGeometry x="320" y="-1159" width="100" height="19" as="geometry" />
        </mxCell>
        <mxCell id="0_VyNLKy_HNecOymSIEc-5" value="Tela (2) Sobre" style="text;strokeColor=#d79b00;align=center;fillColor=#ffe6cc;html=1;verticalAlign=middle;whiteSpace=wrap;rounded=0;" vertex="1" parent="1">
          <mxGeometry x="320" y="-341.5" width="100" height="19" as="geometry" />
        </mxCell>
        <mxCell id="0_VyNLKy_HNecOymSIEc-6" value="TEXTO" style="whiteSpace=wrap;html=1;aspect=fixed;" vertex="1" parent="1">
          <mxGeometry x="20" y="670" width="330" height="330" as="geometry" />
        </mxCell>
        <mxCell id="0_VyNLKy_HNecOymSIEc-7" value="IMAGEM" style="whiteSpace=wrap;html=1;aspect=fixed;" vertex="1" parent="1">
          <mxGeometry x="414" y="670" width="330" height="330" as="geometry" />
        </mxCell>
        <mxCell id="0_VyNLKy_HNecOymSIEc-8" value="Separação entre Sobre e Serviços" style="text;strokeColor=#d79b00;align=center;fillColor=#ffe6cc;html=1;verticalAlign=middle;whiteSpace=wrap;rounded=0;" vertex="1" parent="1">
          <mxGeometry x="262.5" y="481" width="245" height="19" as="geometry" />
        </mxCell>
        <mxCell id="0_VyNLKy_HNecOymSIEc-9" value="Tela (3) Serviços" style="text;strokeColor=#d79b00;align=center;fillColor=#ffe6cc;html=1;verticalAlign=middle;whiteSpace=wrap;rounded=0;" vertex="1" parent="1">
          <mxGeometry x="1160" y="-1159" width="100" height="19" as="geometry" />
        </mxCell>
        <mxCell id="0_VyNLKy_HNecOymSIEc-10" value="Tela (4) Doação" style="text;strokeColor=#d79b00;align=center;fillColor=#ffe6cc;html=1;verticalAlign=middle;whiteSpace=wrap;rounded=0;" vertex="1" parent="1">
          <mxGeometry x="1175" y="-341.5" width="100" height="19" as="geometry" />
        </mxCell>
        <mxCell id="0_VyNLKy_HNecOymSIEc-11" value="Separação entre Doação e Comunidade" style="text;strokeColor=#d79b00;align=center;fillColor=#ffe6cc;html=1;verticalAlign=middle;whiteSpace=wrap;rounded=0;" vertex="1" parent="1">
          <mxGeometry x="1117.5" y="481" width="245" height="19" as="geometry" />
        </mxCell>
        <mxCell id="0_VyNLKy_HNecOymSIEc-12" value="LOGO Parceiro" style="ellipse;whiteSpace=wrap;html=1;" vertex="1" parent="1">
          <mxGeometry x="1030" y="1060" width="70" height="50" as="geometry" />
        </mxCell>
        <mxCell id="0_VyNLKy_HNecOymSIEc-13" value="LOGO&lt;br&gt;Parceiro" style="ellipse;whiteSpace=wrap;html=1;" vertex="1" parent="1">
          <mxGeometry x="1115" y="1060" width="70" height="50" as="geometry" />
        </mxCell>
        <mxCell id="0_VyNLKy_HNecOymSIEc-14" value="LOGO&lt;br style=&quot;border-color: var(--border-color);&quot;&gt;Parceiro" style="ellipse;whiteSpace=wrap;html=1;" vertex="1" parent="1">
          <mxGeometry x="1197.5" y="1060" width="70" height="50" as="geometry" />
        </mxCell>
        <mxCell id="0_VyNLKy_HNecOymSIEc-15" value="LOGO&lt;br style=&quot;border-color: var(--border-color);&quot;&gt;Parceiro" style="ellipse;whiteSpace=wrap;html=1;" vertex="1" parent="1">
          <mxGeometry x="1280" y="1060" width="70" height="50" as="geometry" />
        </mxCell>
        <mxCell id="0_VyNLKy_HNecOymSIEc-16" value="LOGO&lt;br style=&quot;border-color: var(--border-color);&quot;&gt;Parceiro" style="ellipse;whiteSpace=wrap;html=1;" vertex="1" parent="1">
          <mxGeometry x="1362.5" y="1060" width="70" height="50" as="geometry" />
        </mxCell>
        <mxCell id="0_VyNLKy_HNecOymSIEc-17" value="" style="whiteSpace=wrap;html=1;aspect=fixed;" vertex="1" parent="1">
          <mxGeometry x="1673" y="-1140" width="790" height="790" as="geometry" />
        </mxCell>
        <mxCell id="0_VyNLKy_HNecOymSIEc-18" value="" style="rounded=1;whiteSpace=wrap;html=1;" vertex="1" parent="1">
          <mxGeometry x="1693" y="-1120" width="750" height="60" as="geometry" />
        </mxCell>
        <mxCell id="0_VyNLKy_HNecOymSIEc-19" value="Icone Pesquisa" style="rounded=1;whiteSpace=wrap;html=1;" vertex="1" parent="1">
          <mxGeometry x="2340" y="-1105" width="90" height="30" as="geometry" />
        </mxCell>
        <mxCell id="0_VyNLKy_HNecOymSIEc-20" value="LOGO" style="ellipse;whiteSpace=wrap;html=1;" vertex="1" parent="1">
          <mxGeometry x="1700" y="-1115" width="70" height="50" as="geometry" />
        </mxCell>
        <mxCell id="0_VyNLKy_HNecOymSIEc-21" value="Home" style="rounded=1;whiteSpace=wrap;html=1;" vertex="1" parent="1">
          <mxGeometry x="1780" y="-1105" width="70" height="30" as="geometry" />
        </mxCell>
        <mxCell id="0_VyNLKy_HNecOymSIEc-22" value="Sobre" style="rounded=1;whiteSpace=wrap;html=1;" vertex="1" parent="1">
          <mxGeometry x="1860" y="-1105" width="70" height="30" as="geometry" />
        </mxCell>
        <mxCell id="0_VyNLKy_HNecOymSIEc-23" value="Serviços" style="rounded=1;whiteSpace=wrap;html=1;" vertex="1" parent="1">
          <mxGeometry x="1940" y="-1105" width="70" height="30" as="geometry" />
        </mxCell>
        <mxCell id="0_VyNLKy_HNecOymSIEc-24" value="Doação" style="rounded=1;whiteSpace=wrap;html=1;" vertex="1" parent="1">
          <mxGeometry x="2020" y="-1105" width="70" height="30" as="geometry" />
        </mxCell>
        <mxCell id="0_VyNLKy_HNecOymSIEc-25" value="Comunidade" style="rounded=1;whiteSpace=wrap;html=1;" vertex="1" parent="1">
          <mxGeometry x="2100" y="-1105" width="70" height="30" as="geometry" />
        </mxCell>
        <mxCell id="0_VyNLKy_HNecOymSIEc-26" value="Jogo" style="rounded=1;whiteSpace=wrap;html=1;" vertex="1" parent="1">
          <mxGeometry x="2180" y="-1105" width="70" height="30" as="geometry" />
        </mxCell>
        <mxCell id="0_VyNLKy_HNecOymSIEc-28" value="Contato" style="rounded=1;whiteSpace=wrap;html=1;" vertex="1" parent="1">
          <mxGeometry x="2260" y="-1105" width="70" height="30" as="geometry" />
        </mxCell>
        <mxCell id="0_VyNLKy_HNecOymSIEc-34" value="&lt;h1&gt;Título sobre informações do calendario&lt;/h1&gt;&lt;p style=&quot;line-height: 170%;&quot;&gt;Data - Evento - Descrição Evento&lt;/p&gt;&lt;p style=&quot;line-height: 170%;&quot;&gt;Data - Evento - Descrição Evento&lt;br&gt;&lt;/p&gt;&lt;p&gt;Data - Evento - Descrição Evento&lt;br&gt;&lt;/p&gt;" style="text;html=1;strokeColor=none;fillColor=none;spacing=5;spacingTop=-20;whiteSpace=wrap;overflow=hidden;rounded=0;" vertex="1" parent="1">
          <mxGeometry x="1790" y="-880" width="520" height="180" as="geometry" />
        </mxCell>
        <mxCell id="0_VyNLKy_HNecOymSIEc-35" value="Botão (mais sobre evento)" style="rounded=1;whiteSpace=wrap;html=1;" vertex="1" parent="1">
          <mxGeometry x="2080" y="-830" width="160" height="20" as="geometry" />
        </mxCell>
        <mxCell id="0_VyNLKy_HNecOymSIEc-36" value="Botão (mais sobre evento)" style="rounded=1;whiteSpace=wrap;html=1;" vertex="1" parent="1">
          <mxGeometry x="2080" y="-800" width="160" height="20" as="geometry" />
        </mxCell>
        <mxCell id="0_VyNLKy_HNecOymSIEc-37" value="Botão (mais sobre evento)" style="rounded=1;whiteSpace=wrap;html=1;" vertex="1" parent="1">
          <mxGeometry x="2080" y="-770" width="160" height="20" as="geometry" />
        </mxCell>
        <mxCell id="0_VyNLKy_HNecOymSIEc-38" value="Botão (Saiba mais sobre nós)" style="rounded=1;whiteSpace=wrap;html=1;" vertex="1" parent="1">
          <mxGeometry x="1950" y="-480" width="162.5" height="37.5" as="geometry" />
        </mxCell>
        <mxCell id="0_VyNLKy_HNecOymSIEc-39" value="Tela (5) Comunidade" style="text;strokeColor=#d79b00;align=center;fillColor=#ffe6cc;html=1;verticalAlign=middle;whiteSpace=wrap;rounded=0;" vertex="1" parent="1">
          <mxGeometry x="1990" y="-1159" width="120" height="19" as="geometry" />
        </mxCell>
        <mxCell id="0_VyNLKy_HNecOymSIEc-40" value="" style="whiteSpace=wrap;html=1;aspect=fixed;" vertex="1" parent="1">
          <mxGeometry x="1670" y="-323" width="793" height="793" as="geometry" />
        </mxCell>
        <mxCell id="0_VyNLKy_HNecOymSIEc-41" value="Frase de boas vindas ao jogo" style="text;html=1;strokeColor=none;fillColor=none;align=center;verticalAlign=middle;whiteSpace=wrap;rounded=0;" vertex="1" parent="1">
          <mxGeometry x="1930" y="-320" width="218.75" height="30" as="geometry" />
        </mxCell>
        <mxCell id="0_VyNLKy_HNecOymSIEc-43" value="" style="shape=cylinder3;whiteSpace=wrap;html=1;boundedLbl=1;backgroundOutline=1;size=15;" vertex="1" parent="1">
          <mxGeometry x="1970" y="-130" width="60" height="80" as="geometry" />
        </mxCell>
        <mxCell id="0_VyNLKy_HNecOymSIEc-48" value="" style="shape=actor;whiteSpace=wrap;html=1;" vertex="1" parent="1">
          <mxGeometry x="2060" y="-110" width="50" height="60" as="geometry" />
        </mxCell>
        <mxCell id="0_VyNLKy_HNecOymSIEc-49" value="Imagem forca" style="text;html=1;strokeColor=none;fillColor=none;align=center;verticalAlign=middle;whiteSpace=wrap;rounded=0;" vertex="1" parent="1">
          <mxGeometry x="1970" y="-50" width="60" height="30" as="geometry" />
        </mxCell>
        <mxCell id="0_VyNLKy_HNecOymSIEc-50" value="Personagem&lt;br&gt;(hidden)" style="text;html=1;strokeColor=none;fillColor=none;align=center;verticalAlign=middle;whiteSpace=wrap;rounded=0;" vertex="1" parent="1">
          <mxGeometry x="2055" y="-50" width="60" height="30" as="geometry" />
        </mxCell>
        <mxCell id="0_VyNLKy_HNecOymSIEc-51" value="Teclado virtual para usuário inserir as letras" style="rounded=0;whiteSpace=wrap;html=1;" vertex="1" parent="1">
          <mxGeometry x="1970" y="43.5" width="150" height="60" as="geometry" />
        </mxCell>
        <mxCell id="0_VyNLKy_HNecOymSIEc-52" value="_ _ _ _ _ _ _ _ (palavra com letras hidden)" style="text;html=1;strokeColor=none;fillColor=none;align=center;verticalAlign=middle;whiteSpace=wrap;rounded=0;" vertex="1" parent="1">
          <mxGeometry x="1990" width="240" height="30" as="geometry" />
        </mxCell>
        <mxCell id="0_VyNLKy_HNecOymSIEc-53" value="Tela (6) Jogo Forca" style="text;strokeColor=#d79b00;align=center;fillColor=#ffe6cc;html=1;verticalAlign=middle;whiteSpace=wrap;rounded=0;" vertex="1" parent="1">
          <mxGeometry x="2005" y="-342" width="115" height="19" as="geometry" />
        </mxCell>
        <mxCell id="0_VyNLKy_HNecOymSIEc-54" value="" style="whiteSpace=wrap;html=1;aspect=fixed;" vertex="1" parent="1">
          <mxGeometry x="1670" y="500" width="790.5" height="790.5" as="geometry" />
        </mxCell>
        <mxCell id="0_VyNLKy_HNecOymSIEc-55" value="" style="rounded=1;whiteSpace=wrap;html=1;" vertex="1" parent="1">
          <mxGeometry x="1758" y="690" width="620" height="330" as="geometry" />
        </mxCell>
        <mxCell id="0_VyNLKy_HNecOymSIEc-57" value="Texto Boas Vindas" style="text;html=1;strokeColor=none;fillColor=none;align=center;verticalAlign=middle;whiteSpace=wrap;rounded=0;" vertex="1" parent="1">
          <mxGeometry x="1880" y="750" width="120" height="30" as="geometry" />
        </mxCell>
        <mxCell id="0_VyNLKy_HNecOymSIEc-62" value="Ícone &lt;br&gt;Logar &lt;br&gt;Facebook" style="rounded=1;whiteSpace=wrap;html=1;" vertex="1" parent="1">
          <mxGeometry x="1870" y="780" width="60" height="50" as="geometry" />
        </mxCell>
        <mxCell id="0_VyNLKy_HNecOymSIEc-66" value="Ícone &lt;br&gt;Logar &lt;br&gt;Google" style="rounded=1;whiteSpace=wrap;html=1;" vertex="1" parent="1">
          <mxGeometry x="1800" y="780" width="60" height="50" as="geometry" />
        </mxCell>
        <mxCell id="0_VyNLKy_HNecOymSIEc-67" value="Ícone &lt;br&gt;Logar &lt;br&gt;GitHub" style="rounded=1;whiteSpace=wrap;html=1;" vertex="1" parent="1">
          <mxGeometry x="1940" y="780" width="60" height="50" as="geometry" />
        </mxCell>
        <mxCell id="0_VyNLKy_HNecOymSIEc-68" value="Ícone &lt;br&gt;Logar &lt;br&gt;LinKedin" style="rounded=1;whiteSpace=wrap;html=1;" vertex="1" parent="1">
          <mxGeometry x="2010" y="780" width="60" height="50" as="geometry" />
        </mxCell>
        <mxCell id="0_VyNLKy_HNecOymSIEc-69" value="Texto informação" style="text;html=1;strokeColor=none;fillColor=none;align=center;verticalAlign=middle;whiteSpace=wrap;rounded=0;" vertex="1" parent="1">
          <mxGeometry x="1890" y="840" width="100" height="30" as="geometry" />
        </mxCell>
        <mxCell id="0_VyNLKy_HNecOymSIEc-70" value="input e-mail" style="rounded=0;whiteSpace=wrap;html=1;" vertex="1" parent="1">
          <mxGeometry x="1798" y="870" width="270" height="20" as="geometry" />
        </mxCell>
        <mxCell id="0_VyNLKy_HNecOymSIEc-71" value="input senha" style="rounded=0;whiteSpace=wrap;html=1;" vertex="1" parent="1">
          <mxGeometry x="1798" y="900" width="270" height="20" as="geometry" />
        </mxCell>
        <mxCell id="0_VyNLKy_HNecOymSIEc-72" value="Esqueceu senha ? (link hidden)" style="text;html=1;strokeColor=none;fillColor=none;align=center;verticalAlign=middle;whiteSpace=wrap;rounded=0;" vertex="1" parent="1">
          <mxGeometry x="1848" y="930" width="177" height="30" as="geometry" />
        </mxCell>
        <mxCell id="0_VyNLKy_HNecOymSIEc-73" value="Botão (Entrar)" style="rounded=1;whiteSpace=wrap;html=1;" vertex="1" parent="1">
          <mxGeometry x="1876.5" y="970" width="120" height="30" as="geometry" />
        </mxCell>
        <mxCell id="0_VyNLKy_HNecOymSIEc-74" value="" style="rounded=0;whiteSpace=wrap;html=1;" vertex="1" parent="1">
          <mxGeometry x="2110" y="700" width="240" height="310" as="geometry" />
        </mxCell>
        <mxCell id="0_VyNLKy_HNecOymSIEc-75" value="&lt;b&gt;IMAGEM FUNDO&lt;/b&gt;" style="text;html=1;strokeColor=none;fillColor=none;align=center;verticalAlign=middle;whiteSpace=wrap;rounded=0;" vertex="1" parent="1">
          <mxGeometry x="2177.5" y="970" width="105" height="30" as="geometry" />
        </mxCell>
        <mxCell id="0_VyNLKy_HNecOymSIEc-76" value="Primeiro Acesso" style="text;html=1;strokeColor=none;fillColor=none;align=center;verticalAlign=middle;whiteSpace=wrap;rounded=0;" vertex="1" parent="1">
          <mxGeometry x="2190" y="810" width="90" height="30" as="geometry" />
        </mxCell>
        <mxCell id="0_VyNLKy_HNecOymSIEc-77" value="Registre-se" style="text;html=1;strokeColor=none;fillColor=none;align=center;verticalAlign=middle;whiteSpace=wrap;rounded=0;" vertex="1" parent="1">
          <mxGeometry x="2195" y="830" width="80" height="30" as="geometry" />
        </mxCell>
        <mxCell id="0_VyNLKy_HNecOymSIEc-78" value="Botão (Regristrar-se)" style="rounded=1;whiteSpace=wrap;html=1;" vertex="1" parent="1">
          <mxGeometry x="2175" y="870" width="120" height="30" as="geometry" />
        </mxCell>
        <mxCell id="0_VyNLKy_HNecOymSIEc-79" value="Tela (7) Login/Entrar" style="text;strokeColor=#d79b00;align=center;fillColor=#ffe6cc;html=1;verticalAlign=middle;whiteSpace=wrap;rounded=0;" vertex="1" parent="1">
          <mxGeometry x="1970" y="481" width="245" height="19" as="geometry" />
        </mxCell>
        <mxCell id="0_VyNLKy_HNecOymSIEc-80" value="" style="whiteSpace=wrap;html=1;aspect=fixed;" vertex="1" parent="1">
          <mxGeometry x="2499" y="494.5" width="790.5" height="790.5" as="geometry" />
        </mxCell>
        <mxCell id="0_VyNLKy_HNecOymSIEc-81" value="" style="rounded=1;whiteSpace=wrap;html=1;" vertex="1" parent="1">
          <mxGeometry x="2580" y="690" width="620" height="330" as="geometry" />
        </mxCell>
        <mxCell id="0_VyNLKy_HNecOymSIEc-82" value="Texto Criar Conta" style="text;html=1;strokeColor=none;fillColor=none;align=center;verticalAlign=middle;whiteSpace=wrap;rounded=0;" vertex="1" parent="1">
          <mxGeometry x="2980" y="750" width="120" height="30" as="geometry" />
        </mxCell>
        <mxCell id="0_VyNLKy_HNecOymSIEc-83" value="Ícone &lt;br&gt;criar c/&lt;br&gt;Google" style="rounded=1;whiteSpace=wrap;html=1;" vertex="1" parent="1">
          <mxGeometry x="2910" y="780" width="60" height="50" as="geometry" />
        </mxCell>
        <mxCell id="0_VyNLKy_HNecOymSIEc-84" value="Ícone &lt;br&gt;criar c/&lt;br&gt;Facebook" style="rounded=1;whiteSpace=wrap;html=1;" vertex="1" parent="1">
          <mxGeometry x="2980" y="780" width="60" height="50" as="geometry" />
        </mxCell>
        <mxCell id="0_VyNLKy_HNecOymSIEc-85" value="Ícone &lt;br&gt;criar c/&lt;br&gt;GitHub" style="rounded=1;whiteSpace=wrap;html=1;" vertex="1" parent="1">
          <mxGeometry x="3050" y="780" width="60" height="50" as="geometry" />
        </mxCell>
        <mxCell id="0_VyNLKy_HNecOymSIEc-86" value="Ícone &lt;br&gt;criar c/&lt;br&gt;LinKedin" style="rounded=1;whiteSpace=wrap;html=1;" vertex="1" parent="1">
          <mxGeometry x="3120" y="780" width="60" height="50" as="geometry" />
        </mxCell>
        <mxCell id="0_VyNLKy_HNecOymSIEc-87" value="Texto informação" style="text;html=1;strokeColor=none;fillColor=none;align=center;verticalAlign=middle;whiteSpace=wrap;rounded=0;" vertex="1" parent="1">
          <mxGeometry x="3010" y="840" width="100" height="30" as="geometry" />
        </mxCell>
        <mxCell id="0_VyNLKy_HNecOymSIEc-92" value="input e-mail" style="rounded=0;whiteSpace=wrap;html=1;" vertex="1" parent="1">
          <mxGeometry x="2910" y="910" width="270" height="20" as="geometry" />
        </mxCell>
        <mxCell id="0_VyNLKy_HNecOymSIEc-93" value="input senha" style="rounded=0;whiteSpace=wrap;html=1;" vertex="1" parent="1">
          <mxGeometry x="2910" y="940" width="270" height="20" as="geometry" />
        </mxCell>
        <mxCell id="0_VyNLKy_HNecOymSIEc-94" value="Botão (Entrar)" style="rounded=1;whiteSpace=wrap;html=1;" vertex="1" parent="1">
          <mxGeometry x="2985" y="970" width="120" height="30" as="geometry" />
        </mxCell>
        <mxCell id="0_VyNLKy_HNecOymSIEc-95" value="input user" style="rounded=0;whiteSpace=wrap;html=1;" vertex="1" parent="1">
          <mxGeometry x="2910" y="875" width="270" height="20" as="geometry" />
        </mxCell>
        <mxCell id="0_VyNLKy_HNecOymSIEc-96" value="" style="rounded=0;whiteSpace=wrap;html=1;" vertex="1" parent="1">
          <mxGeometry x="2610" y="700" width="240" height="310" as="geometry" />
        </mxCell>
        <mxCell id="0_VyNLKy_HNecOymSIEc-97" value="&lt;b&gt;IMAGEM FUNDO&lt;/b&gt;" style="text;html=1;strokeColor=none;fillColor=none;align=center;verticalAlign=middle;whiteSpace=wrap;rounded=0;" vertex="1" parent="1">
          <mxGeometry x="2677.5" y="970" width="105" height="30" as="geometry" />
        </mxCell>
        <mxCell id="0_VyNLKy_HNecOymSIEc-98" value="Botão (Logar usuário que já possui conta)" style="rounded=1;whiteSpace=wrap;html=1;" vertex="1" parent="1">
          <mxGeometry x="2670" y="870" width="120" height="30" as="geometry" />
        </mxCell>
        <mxCell id="0_VyNLKy_HNecOymSIEc-99" value="Texto" style="text;html=1;strokeColor=none;fillColor=none;align=center;verticalAlign=middle;whiteSpace=wrap;rounded=0;" vertex="1" parent="1">
          <mxGeometry x="2690" y="830" width="80" height="30" as="geometry" />
        </mxCell>
        <mxCell id="0_VyNLKy_HNecOymSIEc-100" value="Já possui cadastro ?" style="text;html=1;strokeColor=none;fillColor=none;align=center;verticalAlign=middle;whiteSpace=wrap;rounded=0;" vertex="1" parent="1">
          <mxGeometry x="2685" y="800" width="90" height="30" as="geometry" />
        </mxCell>
        <mxCell id="0_VyNLKy_HNecOymSIEc-101" value="Tela (8) Login/Registrar-se" style="text;strokeColor=#d79b00;align=center;fillColor=#ffe6cc;html=1;verticalAlign=middle;whiteSpace=wrap;rounded=0;" vertex="1" parent="1">
          <mxGeometry x="2767.5" y="475.5" width="245" height="19" as="geometry" />
        </mxCell>
      </root>
    </mxGraphModel>
  </diagram>
</mxfile>
